<?xml version="1.0" standalone="no"?>
<!DOCTYPE svg PUBLIC "-//W3C//DTD SVG 20010904//EN"
 "http://www.w3.org/TR/2001/REC-SVG-20010904/DTD/svg10.dtd">
<svg version="1.0" xmlns="http://www.w3.org/2000/svg"
 width="300.000000pt" height="300.000000pt" viewBox="0 0 300.000000 300.000000"
 preserveAspectRatio="xMidYMid meet">
<metadata>
Created by potrace 1.10, written by Peter Selinger 2001-2011
</metadata>
<g transform="translate(0.000000,300.000000) scale(0.100000,-0.100000)"
fill="#000000" stroke="none">
<path d="M1420 2626 c-59 -21 -936 -583 -969 -621 -33 -38 -46 -86 -38 -145
11 -84 19 -90 513 -405 255 -163 477 -301 492 -306 41 -17 142 -14 185 4 67
29 935 586 961 618 50 59 56 150 16 217 -10 17 -45 48 -77 70 -172 115 -883
560 -912 570 -44 15 -127 15 -171 -2z m9 -60 c-26 -13 -233 -142 -460 -286
-445 -282 -499 -324 -499 -387 0 -55 33 -97 123 -156 223 -146 802 -510 839
-527 51 -23 96 -25 142 -6 51 21 887 554 923 589 37 35 58 86 48 119 -18 57
-67 94 -487 360 -456 289 -467 296 -507 309 -24 7 -24 7 -4 8 43 2 92 -27 508
-294 28 -18 82 -53 120 -77 39 -24 95 -60 125 -80 30 -19 94 -60 142 -91 103
-66 122 -95 116 -174 -6 -75 -14 -82 -253 -233 -55 -35 -122 -78 -150 -95
-269 -174 -546 -344 -574 -353 -86 -30 -142 -13 -298 86 -839 530 -798 502
-818 556 -21 55 -14 103 20 145 14 16 130 95 257 177 128 81 269 171 313 199
169 109 351 222 365 228 43 16 50 4 9 -17z m252 -104 c633 -399 807 -514 819
-541 13 -32 5 -73 -18 -94 -10 -8 -217 -142 -462 -298 -426 -271 -447 -283
-501 -287 -34 -2 -65 1 -79 8 -64 35 -879 556 -902 578 -35 33 -37 81 -5 115
19 22 819 535 902 580 17 9 51 16 76 17 41 0 61 -9 170 -78z"/>
<path d="M428 1470 c-11 -6 -18 -23 -18 -39 0 -26 32 -50 448 -321 246 -162
475 -308 510 -327 72 -37 148 -44 219 -19 21 8 256 154 521 326 445 288 482
314 482 340 0 34 -22 54 -52 48 -13 -3 -230 -139 -483 -303 -253 -163 -474
-304 -492 -311 -37 -16 -91 -18 -126 -5 -13 5 -233 146 -488 312 -255 166
-473 304 -484 306 -11 2 -28 -2 -37 -7z m154 -109 c187 -125 796 -520 825
-534 28 -15 62 -20 119 -18 38 1 122 51 559 336 89 59 413 267 433 279 6 4 12
3 12 -2 0 -9 -520 -351 -827 -544 -130 -82 -187 -99 -266 -77 -50 15 -200 108
-799 502 -144 94 -186 127 -163 127 2 0 51 -31 107 -69z"/>
<path d="M426 1091 c-41 -45 -35 -49 444 -364 250 -164 479 -310 509 -324 73
-35 158 -35 232 0 30 14 261 159 514 324 l460 298 0 35 c0 28 -5 36 -25 43
-22 8 -80 -26 -510 -304 l-485 -314 -70 0 -70 0 -478 313 c-262 171 -483 312
-490 312 -8 0 -22 -9 -31 -19z m180 -119 c119 -79 203 -133 454 -297 74 -48
171 -112 215 -140 123 -81 155 -96 209 -102 68 -7 70 -5 589 331 236 152 436
280 445 283 15 5 15 4 2 -10 -32 -32 -907 -591 -949 -605 -61 -21 -139 -11
-204 26 -29 16 -149 93 -267 170 -118 77 -306 200 -418 273 -111 72 -205 136
-208 140 -13 22 22 3 132 -69z"/>
</g>
</svg>
